<svg width="111" height="20" viewBox="0 0 111 20" fill="none" xmlns="http://www.w3.org/2000/svg">
<path d="M19.8453 0.000305176H3.96907H0V20.0002H3.96907V12.0002H16.4716H21.433C24.6082 11.8002 27.7835 11.2002 27.7835 6.00027C27.7835 0.000305176 23.616 0.000305176 19.8453 0.000305176ZM23.8144 8.00026H19.8453H3.96907V4.00028H19.8453H23.8144V8.00026Z" fill="white"/>
<path d="M71.2493 0H63.2493C56.0494 0 53.2494 2.79998 53.2494 9.99995V19.9999H57.2494V11.9999H77.2493V19.9999H81.2492V9.99995C81.2492 2.79998 78.4493 0 71.2493 0ZM77.2493 7.99996H57.4494H57.2494V3.99998H63.2493H71.2493H77.2493V7.99996Z" fill="white"/>
<rect x="29.4999" width="3.99998" height="15.9999" fill="white"/>
<rect x="83" width="3.99998" height="8.49995" fill="white"/>
<rect x="106.75" width="3.99998" height="8.49995" fill="white"/>
<rect x="86.9995" y="8.49976" width="7.99996" height="3.99998" fill="white"/>
<rect x="98.9996" y="8.49976" width="7.74996" height="3.99998" fill="white"/>
<rect x="94.9997" y="12.4999" width="3.99998" height="7.49996" fill="white"/>
<rect x="51.4993" y="15.9998" width="3.99998" height="17.9999" transform="rotate(90 51.4993 15.9998)" fill="white"/>
</svg>
