<svg width="240" height="53" viewBox="0 0 240 53" fill="none" xmlns="http://www.w3.org/2000/svg">
<path fill-rule="evenodd" clip-rule="evenodd" d="M0 10.4348H31.3043V52.1739H41.7391V10.4348H73.0435V0H0V10.4348ZM83.4782 15.6522C83.4782 31.3043 99.6521 31.3043 109.565 31.3043H135.652C142.054 31.3043 144.528 31.3043 145.485 32.5092C146.087 33.2682 146.087 34.5053 146.087 36.5217C146.087 38.5382 146.087 39.7753 145.485 40.5343C144.528 41.7391 142.054 41.7391 135.652 41.7391H83.4782V52.1739H130.435C140.348 52.1739 156.522 52.1739 156.522 36.5217C156.522 20.8696 140.348 20.8696 130.435 20.8696H104.348C97.9459 20.8696 95.4717 20.8696 94.5154 19.6647C93.913 18.9058 93.913 17.6686 93.913 15.6522C93.913 13.6357 93.913 12.3986 94.5154 11.6396C95.4717 10.4348 97.9459 10.4348 104.348 10.4348H156.522V0H109.565C99.6521 0 83.4782 0 83.4782 15.6522ZM193.043 0H213.913C232.696 0 240 7.30435 240 26.087V52.1739H229.565V31.3043H177.391V52.1739H166.956V26.087C166.956 7.30435 174.261 0 193.043 0ZM177.913 20.8696H229.565V10.4348H213.913H193.043H177.391V20.8696H177.913Z" fill="white"/>
<path fill-rule="evenodd" clip-rule="evenodd" d="M0 10.4348H31.3043V52.1739H41.7391V10.4348H73.0435V0H0V10.4348ZM83.4782 15.6522C83.4782 31.3043 99.6521 31.3043 109.565 31.3043H135.652C142.054 31.3043 144.528 31.3043 145.485 32.5092C146.087 33.2682 146.087 34.5053 146.087 36.5217C146.087 38.5382 146.087 39.7753 145.485 40.5343C144.528 41.7391 142.054 41.7391 135.652 41.7391H83.4782V52.1739H130.435C140.348 52.1739 156.522 52.1739 156.522 36.5217C156.522 20.8696 140.348 20.8696 130.435 20.8696H104.348C97.9459 20.8696 95.4717 20.8696 94.5154 19.6647C93.913 18.9058 93.913 17.6686 93.913 15.6522C93.913 13.6357 93.913 12.3986 94.5154 11.6396C95.4717 10.4348 97.9459 10.4348 104.348 10.4348H156.522V0H109.565C99.6521 0 83.4782 0 83.4782 15.6522ZM193.043 0H213.913C232.696 0 240 7.30435 240 26.087V52.1739H229.565V31.3043H177.391V52.1739H166.956V26.087C166.956 7.30435 174.261 0 193.043 0ZM177.913 20.8696H229.565V10.4348H213.913H193.043H177.391V20.8696H177.913Z" fill="white"/>
</svg>
