<svg width="144" height="20" viewBox="0 0 144 20" fill="none" xmlns="http://www.w3.org/2000/svg">
<path d="M80.7573 10.3615C80.7573 14.988 79.611 16.1446 75.0258 16.1446H67.3838C62.7986 16.1446 61.6523 14.988 61.6523 10.3615V0.7229H57.8313V10.3615C57.8313 17.3012 61.6523 20 69.2943 20H73.1153C80.7573 20 84.5783 17.3012 84.5783 10.3615V0.7229H80.7573V10.3615Z" fill="white"/>
<path d="M19.1281 0H3.82563H0V19.2771H3.82563V11.5663H15.8764H20.6584C23.7189 11.3735 26.7794 10.7952 26.7794 5.78313C26.7794 0 22.7625 0 19.1281 0ZM22.9538 7.71084H19.1281H3.82563V3.85542H19.1281H22.9538V7.71084Z" fill="white"/>
<rect x="87.7109" y="4.57831" width="3.85542" height="3.85542" fill="white"/>
<rect x="51.5662" y="3.85541" width="3.85542" height="3.85542" fill="white"/>
<rect x="51.5662" y="11.5663" width="3.85542" height="7.71084" fill="white"/>
<rect x="28.4338" y="11.5663" width="3.85542" height="7.71084" fill="white"/>
<rect x="28.4338" y="3.85541" width="3.85542" height="3.85542" fill="white"/>
<rect x="110.843" y="12.2892" width="3.85542" height="3.85542" fill="white"/>
<rect x="91.5662" y="0.7229" width="23.1325" height="3.85542" fill="white"/>
<rect x="91.5662" y="8.43372" width="19.2771" height="3.85542" fill="white"/>
<rect x="87.7109" y="16.1446" width="23.1325" height="3.85542" fill="white"/>
<rect x="51.3252" width="3.85542" height="19.0361" transform="rotate(90 51.3252 0)" fill="white"/>
<rect x="51.3252" y="7.71082" width="3.85542" height="19.0361" transform="rotate(90 51.3252 7.71082)" fill="white"/>
<path d="M116.385 10.3615C116.385 17.3012 119.084 20 126.024 20H143.373V16.1446H126.024C121.976 16.1446 120.626 15.3735 120.434 12.2892H143.373V8.43374H120.434C120.819 5.34941 122.169 4.57832 126.024 4.57832H143.373V0.7229H126.024C119.277 0.7229 116.385 3.4217 116.385 10.3615Z" fill="white"/>
</svg>
